<svg xmlns="http://www.w3.org/2000/svg" width="2000" height="2000" viewBox="0 0 2000 2000"><g transform="translate(540.0,420.0) scale(14.37500)"><polygon points="55.1,22.4 55.1,41.6 41.6,55.1 22.4,55.1 8.9,41.6 8.9,22.4 22.4,8.9 41.6,8.9" fill="none" stroke="#14110d" stroke-width="3.2" stroke-linejoin="round"/><polygon points="50.5,24.3 50.5,39.7 39.7,50.5 24.3,50.5 13.5,39.7 13.5,24.3 24.3,13.5 39.7,13.5" fill="none" stroke="#14110d" stroke-opacity=".35" stroke-width="1.2" stroke-linejoin="round"/><g fill="#14110d" stroke="#14110d" stroke-linecap="round" stroke-linejoin="round"><circle cx="34.5" cy="17.5" r="4.2" stroke="none"/><path d="M29 24 L40.5 24 L39.5 36 L31 36 Z" stroke-width="1.2"/><path d="M30.5 25.5 L25 29 L30 22.5" fill="none" stroke-width="4.8"/><path d="M40 25.5 L46.5 28.5 L43.5 21" fill="none" stroke-width="4.8"/><path d="M32 35.5 L27 41.5 L24 49" fill="none" stroke-width="5.2"/><path d="M38.5 35.5 L43.5 41 L46 49" fill="none" stroke-width="5.2"/></g></g><text x="1000" y="1671.2" text-anchor="middle" font-family="Inter" font-weight="700" font-size="144.0" letter-spacing="25.00" fill="#14110d">PROPBETEDGE</text></svg>