<svg xmlns="http://www.w3.org/2000/svg" viewBox="0 0 320 64" width="320" height="64" role="img" aria-label="PropBetEdge UFC">
  <polygon points="55.1,22.4 55.1,41.6 41.6,55.1 22.4,55.1 8.9,41.6 8.9,22.4 22.4,8.9 41.6,8.9" fill="none" stroke="#d4af37" stroke-width="3.2" stroke-linejoin="round"/>
  <polygon points="50.5,24.3 50.5,39.7 39.7,50.5 24.3,50.5 13.5,39.7 13.5,24.3 24.3,13.5 39.7,13.5" fill="none" stroke="#d4af37" stroke-opacity=".35" stroke-width="1.2" stroke-linejoin="round"/>
  <g fill="#d4af37" stroke="#d4af37" stroke-linecap="round" stroke-linejoin="round">
    <circle cx="34.5" cy="17.5" r="4.2" stroke="none"/>
    <path d="M29 24 L40.5 24 L39.5 36 L31 36 Z" stroke-width="1.2"/>
    <path d="M30.5 25.5 L25 29 L30 22.5" fill="none" stroke-width="4.8"/>
    <path d="M40 25.5 L46.5 28.5 L43.5 21" fill="none" stroke-width="4.8"/>
    <path d="M32 35.5 L27 41.5 L24 49" fill="none" stroke-width="5.2"/>
    <path d="M38.5 35.5 L43.5 41 L46 49" fill="none" stroke-width="5.2"/>
  </g>
  <text x="74" y="41" font-family="Inter, Segoe UI, Helvetica, Arial, sans-serif" font-size="27" font-weight="700" letter-spacing="-0.5" fill="#f5f1eb">PropBet<tspan fill="#d4af37">Edge</tspan></text>
  <rect x="254" y="20" width="52" height="26" rx="4" fill="#d4af37"/>
  <text x="280" y="38" text-anchor="middle" font-family="JetBrains Mono, Menlo, Consolas, monospace" font-size="14" font-weight="700" letter-spacing="2" fill="#14110d">UFC</text>
</svg>
