<svg xmlns="http://www.w3.org/2000/svg" viewBox="0 0 480 600" width="480" height="600" role="img" aria-label="PropBetEdge Logo Tee — design preview, not a photograph">
  <title>PropBetEdge Logo Tee — design preview, not a photograph</title>
  <defs>
    <linearGradient id="ground-tee-dark" x1="0" y1="0" x2="0" y2="1">
      <stop offset="0%" stop-color="#100e0b"/><stop offset="100%" stop-color="#1a1611"/>
    </linearGradient>
    <linearGradient id="cloth-tee-dark" x1="0.15" y1="0" x2="0.85" y2="1">
      <stop offset="0%" stop-color="#2a241c"/><stop offset="100%" stop-color="#1c1712"/>
    </linearGradient>
  </defs>
  <rect width="480" height="600" fill="url(#ground-tee-dark)"/>
  <path d="M186,140 Q240,178 294,140 L340,152 L432,196 L400,282 L352,262 L352,528 Q352,540 340,540 L140,540 Q128,540 128,528 L128,262 L80,282 L48,196 L140,152 Z" fill="url(#cloth-tee-dark)" stroke="rgba(255,245,220,.26)" stroke-width="2" stroke-linejoin="round"/>
  <path d="M180,132 Q240,172 300,132 M406,272 L358,252 M74,272 L122,252 M128,514 L352,514" fill="none" stroke="rgba(255,245,220,.26)" stroke-width="2" stroke-linecap="round" stroke-linejoin="round"/>
  <g transform="translate(240,306)"><g transform="translate(-34.96,-38) scale(1.09)"><polygon points="55.1,22.4 55.1,41.6 41.6,55.1 22.4,55.1 8.9,41.6 8.9,22.4 22.4,8.9 41.6,8.9" fill="none" stroke="#d4af37" stroke-width="3.2" stroke-linejoin="round"/><polygon points="50.5,24.3 50.5,39.7 39.7,50.5 24.3,50.5 13.5,39.7 13.5,24.3 24.3,13.5 39.7,13.5" fill="none" stroke="#d4af37" stroke-opacity=".35" stroke-width="1.2" stroke-linejoin="round"/><g fill="#d4af37" stroke="#d4af37" stroke-linecap="round" stroke-linejoin="round"><circle cx="34.5" cy="17.5" r="4.2" stroke="none"/><path d="M29 24 L40.5 24 L39.5 36 L31 36 Z" stroke-width="1.2"/><path d="M30.5 25.5 L25 29 L30 22.5" fill="none" stroke-width="4.8"/><path d="M40 25.5 L46.5 28.5 L43.5 21" fill="none" stroke-width="4.8"/><path d="M32 35.5 L27 41.5 L24 49" fill="none" stroke-width="5.2"/><path d="M38.5 35.5 L43.5 41 L46 49" fill="none" stroke-width="5.2"/></g></g></g>
</svg>
