<svg xmlns="http://www.w3.org/2000/svg" viewBox="0 0 480 600" width="480" height="600" role="img" aria-label="Round by Round Tee — design preview, not a photograph">
  <title>Round by Round Tee — design preview, not a photograph</title>
  <defs>
    <linearGradient id="ground-tee-dark" x1="0" y1="0" x2="0" y2="1">
      <stop offset="0%" stop-color="#100e0b"/><stop offset="100%" stop-color="#1a1611"/>
    </linearGradient>
    <linearGradient id="cloth-tee-dark" x1="0.15" y1="0" x2="0.85" y2="1">
      <stop offset="0%" stop-color="#2a241c"/><stop offset="100%" stop-color="#1c1712"/>
    </linearGradient>
  </defs>
  <rect width="480" height="600" fill="url(#ground-tee-dark)"/>
  <path d="M186,140 Q240,178 294,140 L340,152 L432,196 L400,282 L352,262 L352,528 Q352,540 340,540 L140,540 Q128,540 128,528 L128,262 L80,282 L48,196 L140,152 Z" fill="url(#cloth-tee-dark)" stroke="rgba(255,245,220,.26)" stroke-width="2" stroke-linejoin="round"/>
  <path d="M180,132 Q240,172 300,132 M406,272 L358,252 M74,272 L122,252 M128,514 L352,514" fill="none" stroke="rgba(255,245,220,.26)" stroke-width="2" stroke-linecap="round" stroke-linejoin="round"/>
  <g transform="translate(240,306)"><rect x="-65.36" y="-36.48" width="22.74" height="28.88" rx="1.82" fill="#d4af37" opacity=".9"/><text x="-53.99" y="4.86" text-anchor="middle" font-family="&#39;DejaVu Sans Mono&#39;,Menlo,Consolas,&#39;Courier New&#39;,monospace" font-size="8.51" fill="#d4af37" opacity=".7">R1</text><rect x="-38.36" y="-36.48" width="22.74" height="28.88" rx="1.82" fill="#d4af37" opacity=".9"/><text x="-27" y="4.86" text-anchor="middle" font-family="&#39;DejaVu Sans Mono&#39;,Menlo,Consolas,&#39;Courier New&#39;,monospace" font-size="8.51" fill="#d4af37" opacity=".7">R2</text><rect x="-11.37" y="-36.48" width="22.74" height="28.88" rx="1.82" fill="none" stroke="#d4af37" stroke-width="2.13" opacity=".7"/><text x="0" y="4.86" text-anchor="middle" font-family="&#39;DejaVu Sans Mono&#39;,Menlo,Consolas,&#39;Courier New&#39;,monospace" font-size="8.51" fill="#d4af37" opacity=".7">R3</text><rect x="15.63" y="-36.48" width="22.74" height="28.88" rx="1.82" fill="#d4af37" opacity=".9"/><text x="27" y="4.86" text-anchor="middle" font-family="&#39;DejaVu Sans Mono&#39;,Menlo,Consolas,&#39;Courier New&#39;,monospace" font-size="8.51" fill="#d4af37" opacity=".7">R4</text><rect x="42.62" y="-36.48" width="22.74" height="28.88" rx="1.82" fill="none" stroke="#d4af37" stroke-width="2.13" opacity=".7"/><text x="53.99" y="4.86" text-anchor="middle" font-family="&#39;DejaVu Sans Mono&#39;,Menlo,Consolas,&#39;Courier New&#39;,monospace" font-size="8.51" fill="#d4af37" opacity=".7">R5</text><text x="0" y="24.32" text-anchor="middle" font-family="Georgia,&#39;Times New Roman&#39;,&#39;Iowan Old Style&#39;,serif" font-size="13.57" letter-spacing="2.04" fill="#d4af37" opacity="1">ROUND BY ROUND</text></g>
</svg>
